<svg xmlns="http://www.w3.org/2000/svg" width="1600" height="1100" viewBox="0 0 1600 1100">
  <defs>
    <linearGradient id="sky" x1="0" y1="0" x2="0" y2="1">
      <stop offset="0" stop-color="#1F3B2C"/>
      <stop offset="0.55" stop-color="#33513D"/>
      <stop offset="1" stop-color="#515932"/>
    </linearGradient>
    <radialGradient id="moon" cx="0.72" cy="0.28" r="0.28">
      <stop offset="0" stop-color="#F4EFE4" stop-opacity="0.95"/>
      <stop offset="0.5" stop-color="#CBBF9A" stop-opacity="0.35"/>
      <stop offset="1" stop-color="#CBBF9A" stop-opacity="0"/>
    </radialGradient>
  </defs>
  <rect width="1600" height="1100" fill="url(#sky)"/>
  <rect width="1600" height="1100" fill="url(#moon)"/>
  <g fill="#14251C" fill-opacity="0.55">
    <path d="M0 1100 L0 620 Q120 520 180 620 L180 1100 Z"/>
    <path d="M1600 1100 L1600 560 Q1470 470 1420 560 L1420 1100 Z"/>
    <path d="M300 1100 Q360 700 420 1100 Z"/>
    <path d="M1180 1100 Q1240 720 1300 1100 Z"/>
  </g>
  <g stroke="#97A97C" stroke-opacity="0.25" stroke-width="6" fill="none">
    <path d="M-20 900 Q400 840 820 900 T1650 880"/>
    <path d="M-20 960 Q420 900 840 960 T1650 940"/>
  </g>
</svg>
